<?xml version="1.0" encoding="utf-8"?>
<!-- Generator: Adobe Illustrator 26.0.2, SVG Export Plug-In . SVG Version: 6.00 Build 0)  -->
<svg version="1.1" id="Capa_1" xmlns="http://www.w3.org/2000/svg" xmlns:xlink="http://www.w3.org/1999/xlink" x="0px" y="0px"
	 viewBox="0 0 200 200" style="enable-background:new 0 0 200 200;" xml:space="preserve">
<style type="text/css">
	.st0{fill:#F3B22B;}
	.st1{fill:#FFFFFF;}
	.st2{fill:#37379B;}
</style>
<g>
	<path class="st0" d="M96.2,161.7c6.5,0.1,20.1,0.1,34.3-2c11.3-1.5,20.9-6.9,27.5-15.7c6.2-8.3,9.4-18.9,9.4-31.5l0,0
		c0-3.8-0.3-7.8-0.9-12c0.3-3,0.4-6,0.4-8.8c0-7.8-1-14.9-3-21.3c-3.5-11.3-10.1-20.3-19.6-26.5c-6.7-4.4-14.6-7.3-23.5-8.6
		c-9.5-1.4-17.6-0.5-21.6,0.1c-3,0.5-5.7,1.1-7.9,1.9s-4,1.8-5.5,3c-4.6-0.2-9.6-0.3-14.9-0.3c-17.4-0.1-30.3,7.8-33.2,20.2
		c-0.3,1.5-0.5,3.1-0.5,4.7c0,3.9,1.1,7.8,3.1,11.5c-3.3,3.5-5.4,7.9-5.9,12.6c-0.1,0.7-0.1,1.5-0.1,2.2c0,4.6,1.5,9.2,4.2,13.4
		c-3.8,4.6-5.9,10.3-5.9,16.4c0,0.1,0,0.3,0,0.4c0.1,8.3,4.2,15.9,10.7,20.5c0.1,1.7,0.4,3.3,0.9,4.8c1.6,5.3,6.7,14.6,22.8,17.9
		c0.1,0.1,0.3,0.1,0.3,0.1c0.1,0,0.2,0,0.3,0C75.2,165.8,86,166.2,96.2,161.7z"/>
	<g>
		<path class="st1" d="M97.3,148.8c6.2,0.1,18.7,0,31.6-1.9l0,0c7.9-1,14.5-4.7,19-10.7c6.2-8.2,8.2-20.4,5.8-35.3v-0.1v-0.1
			c1.3-13.6-0.3-24.9-4.9-33.5c-3.7-7.1-9.5-12.4-17.2-15.7c-9.4-4.1-19.4-4.3-24.5-4c-7.6,0.4-12.3,2-13.1,2.7
			c-0.7,4.3-4.1,8.1-7.1,11.4c-3.5,3.9-6.5,7.2-4.9,10.2c3.3,6.2,3.1,15,2.8,19.6c-0.5,6.7-2.2,13.2-4.2,16.2
			c-3.2,5.3-3.7,11.7-1,15.1c2.5,3.2,7.4,3.8,14.2,1.8c5.3-1.6,9.1-4.7,11.5-9.1c4.9-9.3,2.2-22,1.6-24.6c-0.4-0.9-0.7-2-0.9-3
			c-0.1-0.2,0-0.5,0.1-0.7l0,0l0,0c0.1-0.3,0.4-0.6,0.8-0.6c0.6,0,1.1,0.3,1.2,0.9c0.9,4.7,4,8.3,8.7,9.9c3,1,6.3,1.1,9.6,0.3
			c3.3-0.8,6.4-2.5,9-5c0.4-0.4,1.1-0.4,1.5,0l0,0c0.5,0.5,0.5,1.2,0,1.6c-3,2.7-6.4,4.6-10,5.5c-3.7,1-7.5,0.9-10.9-0.3
			c-2.5-0.8-4.7-2.3-6.4-4.1c0.1,1.1,0.3,2.3,0.4,3.6c0.4,4.8,0.2,11.8-2.9,17.6c-0.9,1.6-2,3.1-3.2,4.4c-0.4,1.8-1.1,3.6-2.1,5.2
			c1.5,1.1,2.5,2.7,3.1,4.5c0.6,1.9,0.7,4,0.2,6.3C104.2,141.4,101.4,145.6,97.3,148.8z"/>
		<path class="st1" d="M82.5,82.1c-6.1-1.6-13.7-2.6-21.9-1.4c-8,1.1-12.9,4.7-13.4,9.7c-0.5,4.7,3.2,10.9,12.1,15.6l19.8-0.3
			C81.5,101.2,83.4,90.9,82.5,82.1z"/>
		<path class="st1" d="M77.8,107.9L58,108.2c-3.4,0-6.6,1.4-9,3.9c-2.4,2.5-3.7,5.8-3.6,9.2c0,1.2,0.2,2.5,0.6,3.6
			c1.7,5.3,6.7,9.1,12.5,9l27-0.4c6.7-0.1,12.5-4.1,15.2-9.8c-1.9,1.3-4,2.3-6.4,3c-9.8,2.9-14.4,0.2-16.6-2.6
			C74.7,120.2,74.8,113.7,77.8,107.9z"/>
		<path class="st1" d="M90.4,53.6C85.3,53.2,78.7,53,70.8,53c-5.7,0-10.7,1-14.4,3c-3.3,1.8-5.4,4.3-6.1,7.2
			c-1.2,5.2,2.6,10.9,10,15.4c8.3-1.2,16-0.2,21.9,1.2c-0.5-2.6-1.2-5-2.2-6.9c-2.3-4.4,1.5-8.6,5.2-12.7
			C87.2,58,89.2,55.8,90.4,53.6z"/>
		<path class="st1" d="M69.6,151.9c21.6,3.3,31.9-7.5,33.5-15.5c0.8-3.7-0.2-6.8-2.4-8.5c-0.5,0.6-1,1.2-1.6,1.8
			c-3.6,3.7-8.4,5.8-13.6,5.9l-27,0.4c-0.5,0.1-0.9,0-1.4,0c-1,2.4-1.3,4.8-0.6,7l0,0C57.8,147.3,62.6,150.6,69.6,151.9z"/>
		<path class="st2" d="M94,150.9c4,0.2,19.3,0.6,35.2-1.8c8.5-1,15.6-5,20.5-11.5c6.5-8.7,8.6-21.4,6.2-36.8
			c1.1-11.1,0.2-20.1-2-27.2c-6.3-20.1-23.1-26.1-34.5-27.7c-8.2-1.2-15.1-0.4-18.5,0.1c-2.3,0.3-4.4,0.8-6,1.4
			c-1.9,0.6-2.8,1.3-3,2.2v0.1c-0.1,0.5-0.2,1.1-0.4,1.6c-5.1-0.4-11.9-0.7-20.6-0.6c-12.1-0.1-21,4.5-22.7,11.9
			c-0.8,3.5,0.2,7.2,2.8,10.7c1.5,2,3.6,4,6.2,5.8c-3.1,0.8-5.8,2-7.8,3.6c-2.6,2-4.1,4.6-4.4,7.5c-0.4,3.6,1.2,7.6,4.4,11.1
			c1.6,1.8,3.6,3.5,6,5c-3,0.6-5.7,2.1-7.9,4.3c-2.8,2.9-4.3,6.7-4.2,10.7c0.1,7,5,12.9,11.6,14.4c-1.1,2.7-1.3,5.4-0.5,7.9
			c1.6,5.1,6.8,8.9,14.8,10.5l0,0C75.9,155.2,85.6,155.4,94,150.9z M77.9,107.9c-3,5.8-3.1,12.3-0.1,16.2c2.2,2.8,6.8,5.5,16.6,2.6
			c2.4-0.7,4.5-1.7,6.4-3c-2.7,5.7-8.5,9.7-15.2,9.8l-27,0.4c-5.8,0.1-10.8-3.7-12.5-9c-0.4-1.1-0.6-2.3-0.6-3.6
			c-0.1-3.5,1.2-6.7,3.6-9.2c2.3-2.5,5.6-3.8,9-3.9L77.9,107.9z M82.5,82.1c0.9,8.8-1,19.1-3.4,23.6L59.3,106
			c-8.9-4.7-12.6-10.9-12.1-15.6c0.5-5,5.4-8.6,13.4-9.7C68.8,79.5,76.4,80.5,82.5,82.1z M90.5,53.3c-1.3,2.4-3.3,4.6-5.3,6.8
			c-3.7,4.1-7.5,8.3-5.2,12.7c1.1,2,1.8,4.3,2.2,6.9c-5.9-1.4-13.6-2.4-21.9-1.2c-7.4-4.5-11.2-10.2-10-15.4
			c0.6-2.9,2.7-5.4,6.1-7.2c3.7-2,8.7-3.1,14.4-3C78.8,52.8,85.3,53.1,90.5,53.3z M97,148.9c4.2-3.2,7.1-7.4,8-11.9
			c0.5-2.3,0.4-4.5-0.2-6.3c-0.5-1.9-1.6-3.4-3.1-4.5c0.9-1.6,1.7-3.4,2.1-5.2c1.3-1.3,2.3-2.8,3.2-4.4c3.1-5.8,3.3-12.8,2.9-17.6
			c-0.1-1.3-0.2-2.5-0.4-3.6c1.7,1.8,3.8,3.2,6.4,4.1c3.4,1.1,7.2,1.2,10.9,0.3c3.7-0.9,7.1-2.8,10-5.5c0.4-0.4,0.4-1.2,0-1.6l0,0
			c-0.4-0.4-1.1-0.4-1.5,0c-2.7,2.5-5.7,4.2-9,5c-3.3,0.8-6.6,0.7-9.6-0.3c-4.7-1.6-7.8-5.2-8.7-9.9c-0.1-0.6-0.6-1-1.2-0.9
			c-0.3,0.1-0.6,0.3-0.8,0.6l0,0l0,0c-0.1,0.2-0.1,0.4-0.1,0.7c0.2,1,0.5,2,0.9,3c0.7,2.6,3.4,15.3-1.6,24.6
			c-2.4,4.5-6.2,7.5-11.5,9.1c-6.8,2.1-11.7,1.4-14.2-1.8c-2.7-3.4-2.2-9.8,1-15.1c1.9-3,3.6-9.5,4.2-16.2
			c0.4-4.7,0.5-13.4-2.8-19.6c-1.6-3,1.4-6.4,4.9-10.2c3-3.3,6.4-7.1,7.1-11.4c0.9-0.7,5.5-2.3,13.1-2.7c5.1-0.2,15.1-0.1,24.5,4
			c7.6,3.3,13.4,8.6,17.2,15.7c4.6,8.6,6.3,19.9,4.9,33.5v0.1v0.1c2.4,14.9,0.4,27.1-5.8,35.3c-4.5,6-11.1,9.7-19,10.7l0,0
			C115.9,148.9,103.4,149,97,148.9z M69.4,152c-6.9-1.4-11.7-4.6-13-8.9c0-0.1,0-0.1,0-0.1c-0.7-2.1-0.5-4.5,0.6-6.9
			c0.4,0,0.9,0,1.4,0l27-0.4c5.2-0.1,10-2.2,13.6-5.9c0.6-0.5,1.1-1.2,1.6-1.8c2.2,1.7,3.2,4.8,2.4,8.5
			C101.4,144.5,91.1,155.3,69.4,152z"/>
	</g>
</g>
</svg>
