<?xml version="1.0" encoding="utf-8"?>
<!-- Generator: Adobe Illustrator 26.0.2, SVG Export Plug-In . SVG Version: 6.00 Build 0)  -->
<svg version="1.1" id="Capa_1" xmlns="http://www.w3.org/2000/svg" xmlns:xlink="http://www.w3.org/1999/xlink" x="0px" y="0px"
	 viewBox="0 0 200 200" style="enable-background:new 0 0 200 200;" xml:space="preserve">
<style type="text/css">
	.st0{fill:#F05656;}
	.st1{fill:#675FD2;}
	.st2{fill:#FFFFFF;}
	.st3{fill:#5E4B3C;}
	.st4{fill:#37379B;}
</style>
<g>
	<g>
		<path class="st0" d="M138.2,146.9c31.6-5,41-17.1,39.1-46.8c0.9-8.8,1-21-2.3-29.1c-4-10.7-12.6-18.4-25.5-23
			c-11.6-5.2-19.3-20.8-29.5-28.2C97.7,5,83.5,31.9,95.6,48.9c-16.7-3.1-34.8-10.1-50-7.3c-10.2,3.3-11.3,9.2-12,16.7
			c0.1,11,8.4,17.6,18.8,22.2c-6.8,0.6-12.3,1-19.4,3.8c-9.9,4.6-10.8,10.4-10.9,15.6c0.9,15.2,12.2,20.1,28.8,21.6
			C39.7,127,33.6,132.4,33,142.9c0,7.6,5,15,12.3,17.6c7.8,3.8,24.7-0.4,36.3-5.8c-5.6,8.4-7.2,19.2,1,25.8
			C104.1,193.7,119.1,171.7,138.2,146.9z"/>
	</g>
	<g>
		<g>
			<g>
				<path class="st1" d="M100.7,146.2c0-0.8-1.4-0.8-1.3,0C99.4,147,100.7,147,100.7,146.2L100.7,146.2z"/>
			</g>
		</g>
		<path class="st2" d="M132.1,137.1c30.1-6.3,34.9-7,34.5-34.5c1-13,0.3-25.2-1.6-27.7c-7.7-18.8-24.5-11.9-41.2-35.8
			c-20.2-27.3-30.3-4.1-11.2,14.1c4.9,5.9,9.5,11.5,9,16.4c-2.7,11,7.1,20.8,16.2,23.2c0.5,0.2,0.8,0.7,0.7,1.2l0.2-0.9l0,0l-0.2,1
			l0,0l0,0c-0.2,0.6-0.8,0.9-1.3,0.7c-9.1-3.1-19.8-10.6-17.5-25.3c0.2-2.1-0.8-4.4-2.4-6.9c-0.1,0-0.1,0-0.1,0
			c-11.9,3.1-65.5-17.6-71.8-8.2c-8.6,22.6,55,21.1,60.5,31.7c0.4,11.3-87.6-5.3-70.7,19.3c8.8,11.4,58.4-0.1,70.3,5.1
			c0.5,0.4,0.7,1,0.7,1.7c-4.7,11.9-68.1,13.1-61.5,33.7c8.3,20.1,68.1-24.6,70.2-15.8c-1.8,8.4-28.7,29.4-27.1,38.7
			C95.9,186.6,121.5,151.8,132.1,137.1z"/>
		<path class="st3" d="M100,94.1L100,94.1L100,94.1z"/>
		<polygon class="st3" points="99.9,94.1 99.9,94.1 100.1,93.2 		"/>
		<path class="st4" d="M133.1,138.9c30.7-6.2,35.6-8.6,35.3-36.3c0.3-8.8,1.6-20.2-1.7-28.4c-7.8-19.5-26.1-13.7-41.5-36.4
			c-7.2-8.6-13.7-16.3-21.4-12.1c-4,4.3-4.9,9.1-2.5,14.8c2.9,7,10,13.9,14.6,20.2c-14.1,2.3-67.2-19.3-72.4-6.9
			C35,77.4,90.2,77.4,103.8,86c0,0.1-0.5,1.3-7.6,1.9C82.1,89,61,87.8,46.9,89.8c-6.8,1-15.8,2.9-15.9,8.9
			c0.3,18.7,31.5,13.6,51.2,12.9c5.8-0.4,33.7-2.9,16,4.1c-12.6,5.7-62.5,11.2-55.5,30.9c1.1,2.6,3,4.4,5.7,5.4
			c15.2,5.6,46.3-15.3,64.4-21.5c-4.9,11-35.3,31.7-24.6,43C102.8,182.6,119.5,156.7,133.1,138.9z M104.4,144
			c6.6-7.2,10.4-11.2,10.3-14c-3.5-8-61.6,35.9-70.2,15.9c-6.7-20.7,56.7-21.8,61.5-33.7c-1.6-5.3-9.8-3-24.1-2.5
			c-17.4,0.6-49,5.4-49-10.8c0-3.4,4.8-5.7,14.2-7c11.8-3.2,56.7,2.3,58.7-5.8c-5.5-10.6-69.1-9.1-60.5-31.7
			c6.3-9.4,59.8,11.3,71.8,8.2c0.1,0,0.1,0,0.1,0c1.6,2.5,2.6,4.9,2.4,6.9c-2.4,14.7,8.3,22.1,17.5,25.3c0.6,0.2,1.2-0.1,1.3-0.7
			c0.1-0.5-0.2-1-0.7-1.2c-9.1-2.5-18.9-12.2-16.2-23.2c0.6-4.9-4.1-10.5-9-16.4C93.3,35,103.6,12,123.7,39.1
			c16.6,23.9,33.5,17.1,41.1,35.8c1.8,2.6,2.6,14.7,1.6,27.7c0.3,27.5-4.4,28.3-34.5,34.5c-11.4,16-26.1,35-36.6,36.4
			C77.1,172.7,96.3,153,104.4,144z"/>
	</g>
</g>
</svg>
