<?xml version="1.0" encoding="utf-8"?>
<!-- Generator: Adobe Illustrator 26.0.2, SVG Export Plug-In . SVG Version: 6.00 Build 0)  -->
<svg version="1.1" id="Capa_1" xmlns="http://www.w3.org/2000/svg" xmlns:xlink="http://www.w3.org/1999/xlink" x="0px" y="0px"
	 viewBox="0 0 200 200" style="enable-background:new 0 0 200 200;" xml:space="preserve">
<style type="text/css">
	.st0{fill:#A7CE85;}
	.st1{fill:#FFFFFF;}
	.st2{fill:#37379B;}
</style>
<g>
	<g>
		<path class="st0" d="M121.7,150.2c25.8,3,54.8-3.4,57.5-35.1c0.4-4.4,0-9.2-1-13.2c4.4-32.2-10.2-49.4-41.2-52.6
			c-4.3-0.9-9.6-0.3-13.9,0.3c-7.2,2-12.9,1.4-27.2,1.4c-15.6-0.2-39.4-9.8-54.9-5.5c-7.9,3.1-9.2,7.7-9.6,13.9
			C31.7,74,47.9,80.3,64.6,85.9c-16.8,1.9-48.8,3-43.3,25c8.1,19.4,33.3,15,51.9,13.8c-1.1,9.3,6,16.7,15.3,18.9
			c2.5,5.1,7.2,9,12.7,10.8C109.1,157.2,115.5,153.9,121.7,150.2z"/>
	</g>
	<g>
		<path class="st1" d="M73.5,56.7c-16.8-2.7-37.2-8.7-32,6.2c5.1,9.6,30.1,16,59.1,23.5c4.5,1.2,4.9,3.9-0.2,4.4
			c-7.8,1.1-15.7,1.8-26,3.2c-14.9,1.4-39.8,3-44,9.8c-3,8.7,7.3,12.7,20.2,13c10.5,0.3,23.9-1.3,38.3-3.1c6-4.4,13-6.6,18.6-7.7
			c2.8-5.8,4.9-19.7,1-27.4c-2.3-6.1,2.5-14.9,8.4-18.8C106.3,60.6,87.8,60.4,73.5,56.7z"/>
		<path class="st1" d="M117.8,124.4c-9.2,1.3-17.1-6.6-11.6-15.9C60,121.8,90.3,150.9,117.8,124.4z"/>
		<path class="st1" d="M122.9,141.1c27.1,3.5,53.3-6.5,46.2-38.3c4.1-30.3-6.9-41.6-33.5-44.7c-3.4-0.6-8.7-0.5-12.9,0.9
			c-7.1,1.5-14.8,13.1-12.4,18.6c4.6,9,1.7,25.2-1.6,30.5c-3,4.7-3.1,8.8-0.3,11.5c12.3,9.2,25.4-6.2,23.6-20
			c-0.1-2.7-0.7-5.6-1.3-8c-1.3-2.8,0.9-3.7,1.6-2c2.3,11.2,14,12.1,22.7,5.2c0.4-0.3,1.1-0.2,1.4,0.2c0.3,0.5,0.3,1.2-0.2,1.5
			c-7.6,5.6-16.3,6.9-22.3,0.8c0.8,6.9-0.5,14.2-4,19c5.4,7.2,4.7,15.6-2.8,21.7C125.9,139.1,124.5,140.2,122.9,141.1z"/>
		<path class="st1" d="M110.5,145.7c12.7-5.9,19.5-11.7,20.8-17.6c0.7-3.1-0.2-6.4-2.7-10.2c-2,2.3-4.6,4.5-7.5,5.6
			c-4.9,6.4-14.9,12.5-25.1,13.8c0.3,1.9,1.1,3.3,1.9,4.3C101,145.5,106.7,147.4,110.5,145.7z"/>
		<path class="st2" d="M120.4,142.9c13.2,2.4,39.9,1.3,47.5-14c4.5-7.3,5.7-18.1,3.3-26.2c4.3-31.1-8.3-43.5-35.3-46.5
			c-3.9-0.6-7.5-0.6-10.8,0.1l0,0c-8,2.2-13.6,1.7-29.3,1.7c-12.9,0.7-52.7-13.7-56.7-2.2c-5.7,20.4,44.4,26.8,61.8,32.9
			c-8.7,1.2-20.5,2.7-31.5,3.8c-18.6,2.4-43.8,2-41.4,16.1c4.5,13.3,28.8,11.2,57.9,7.6c-10.6,9-5.4,20.4,8,21.2
			c0.3,1.9,1,3.8,2.4,5.5C104.4,152.1,112.4,147.9,120.4,142.9z M106.2,108.5c-5.6,9.3,2.3,17.2,11.6,15.9
			c-5.1,6.3-27.8,17.6-34.8,5.2C78.1,120.1,97.8,109.6,106.2,108.5z M116.9,59.9c-5.8,3.9-10.6,12.7-8.4,18.8
			c3.9,7.7,1.7,21.6-1,27.4c-5.6,1.1-12.6,3.3-18.6,7.7c-14.4,1.8-27.8,3.4-38.3,3.1c-12.9-0.4-23.2-4.3-20.2-13
			c4.2-6.8,29-8.4,44-9.8c10.3-1.4,18.2-2.1,26-3.2c5.1-0.5,4.8-3.1,0.3-4.4C71.7,79,46.5,72.6,41.4,63c-5.2-15,15.2-9,32-6.2
			C87.8,60.4,106.2,60.6,116.9,59.9z M123,141.2c9.7-6.2,14.1-15.3,6.9-24.9c3.5-4.8,4.8-12,4-19c6,6.1,14.7,4.8,22.3-0.8
			c1.1-0.8-0.2-2.4-1.2-1.6c-8.7,6.9-20.4,6-22.7-5.2c-0.1-0.5-0.6-0.9-1.1-0.8c-1.4,0.3-0.8,1.9-0.5,2.8
			c9.8,37.1-34.1,38.1-22,16.6c3.2-5.4,6.1-21.5,1.6-30.5c-2.3-7.4,6.5-18.3,15.2-19.4c3.8-0.8,7.5-0.6,10.1-0.2
			c26.3,3.1,37.7,13.9,33.5,44.2c5.1,14.9-3.8,36.2-22.9,38.2C136.9,141.9,129.2,142.1,123,141.2z M96,137.5
			c10.2-1.3,20.2-7.5,25.1-13.8c3-1.2,5.5-3.3,7.5-5.6c7.9,13.3-1.5,19.2-18.1,27.8C105.3,147.8,97.1,143.9,96,137.5z"/>
	</g>
</g>
</svg>
