<?xml version="1.0" encoding="utf-8"?>
<!-- Generator: Adobe Illustrator 25.4.2, SVG Export Plug-In . SVG Version: 6.00 Build 0)  -->
<svg version="1.1" id="Capa_1" xmlns="http://www.w3.org/2000/svg" xmlns:xlink="http://www.w3.org/1999/xlink" x="0px" y="0px"
	 viewBox="0 0 200 200" style="enable-background:new 0 0 200 200;" xml:space="preserve">
<style type="text/css">
	.st0{fill:#F05656;}
	.st1{fill:#675FD2;}
	.st2{fill:#FFFFFF;}
	.st3{fill:#5E4B3C;}
	.st4{fill:#37379B;}
</style>
<g>
	<g>
		<path class="st0" d="M180.5,82.6c-6.6-8.2-17.4-6.6-25.8-1c5.4-11.6,9.6-28.5,5.8-36.3c-2.6-7.3-10-12.3-17.6-12.3
			c-10.5,0.6-15.9,6.7-21.4,17.9C120,34.3,115.1,23,99.9,22.1c-5.2,0.1-11,1-15.6,10.9c-2.8,7.1-3.2,12.6-3.8,19.4
			C75.9,42,69.3,33.7,58.3,33.6c-7.5,0.7-13.4,1.8-16.7,12c-2.8,15.2,4.2,33.3,7.3,50c-17-12.1-43.9,2.1-29.1,24.4
			c7.4,10.2,23,17.9,28.2,29.5c4.6,12.9,12.3,21.5,23,25.5c8.1,3.3,20.3,3.2,29.1,2.3c29.7,1.9,41.8-7.5,46.8-39.1
			C171.7,119.1,193.7,104.1,180.5,82.6z"/>
	</g>
	<g>
		<g>
			<g>
				<path class="st1" d="M146.2,100.7c0.8,0,0.8-1.3,0-1.3C145.4,99.3,145.4,100.7,146.2,100.7L146.2,100.7z"/>
			</g>
		</g>
		<path class="st2" d="M168.8,87.8c-9.3-1.6-30.3,25.3-38.7,27.1c-8.8-2.1,35.9-61.9,15.8-70.2c-20.6-6.6-21.8,56.8-33.7,61.5
			c-0.7,0-1.3-0.2-1.7-0.7c-5.2-11.9,6.3-61.5-5.1-70.3c-24.6-16.9-8,71.1-19.3,70.7c-10.6-5.5-9.1-69.1-31.7-60.5
			c-9.4,6.3,11.3,59.9,8.2,71.8c0,0,0,0,0,0.1c2.5,1.6,4.8,2.6,6.9,2.4c14.7-2.3,22.2,8.4,25.3,17.5c0.2,0.5-0.1,1.1-0.7,1.3l0,0
			l0,0l-1,0.2c0,0,0,0,0,0l0.9-0.2c-0.5,0.1-1-0.2-1.2-0.7c-2.4-9.1-12.2-18.9-23.2-16.2c-4.9,0.5-10.5-4.1-16.4-9
			c-18.2-19.1-41.4-9-14.1,11.2c23.9,16.7,17,33.5,35.8,41.2c2.5,1.9,14.7,2.6,27.7,1.6c27.5,0.4,28.2-4.4,34.5-34.5
			C151.8,121.5,186.6,95.9,168.8,87.8z"/>
		<path class="st3" d="M94.1,100L94.1,100C94.1,100,94.1,100,94.1,100z"/>
		<polygon class="st3" points="93.2,100.1 94.1,99.9 94.1,99.9 93.2,100.1 		"/>
		<path class="st4" d="M173.5,88.2c-11.3-10.7-32,19.7-43,24.6c6.2-18.1,27.1-49.2,21.5-64.4c-1-2.7-2.8-4.6-5.4-5.7
			c-19.7-7-25.2,42.9-30.9,55.5c-7,17.7-4.5-10.2-4.1-16c0.7-19.7,5.8-50.9-12.9-51.2c-6,0.1-7.9,9.1-8.9,15.9
			c-2,14.1-0.8,35.2-1.9,49.3c-0.6,7.1-1.8,7.6-1.9,7.6C77.4,90.2,77.4,35,53.8,43.5c-12.4,5.2,9.2,58.3,6.9,72.4
			c-6.3-4.6-13.2-11.7-20.2-14.6c-5.7-2.4-10.5-1.5-14.8,2.5c-4.2,7.7,3.5,14.2,12.1,21.4c22.7,15.4,16.9,33.7,36.4,41.5
			c8.2,3.3,19.6,2,28.4,1.7c27.7,0.3,30.1-4.6,36.3-35.3C156.7,119.5,182.6,102.8,173.5,88.2z M173.5,95.3
			c-1.4,10.5-20.4,25.2-36.4,36.6c-6.2,30.1-7,34.8-34.5,34.5c-13,1-25.1,0.2-27.7-1.6c-18.7-7.6-11.9-24.5-35.8-41.1
			C12,103.6,35,93.3,53.3,112.5c5.9,4.9,11.5,9.6,16.4,9c11-2.7,20.7,7.1,23.2,16.2c0.2,0.5,0.7,0.8,1.2,0.7
			c0.6-0.1,0.9-0.7,0.7-1.3c-3.2-9.2-10.6-19.9-25.3-17.5c-2,0.2-4.4-0.8-6.9-2.4c0,0,0,0,0-0.1c3.1-12-17.6-65.5-8.2-71.8
			c22.6-8.6,21.1,55,31.7,60.5c8.1-2,2.6-46.9,5.8-58.7c1.3-9.4,3.6-14.2,7-14.2c16.2,0,11.4,31.6,10.8,49
			c-0.5,14.3-2.8,22.5,2.5,24.1c11.9-4.8,13-68.2,33.7-61.5c20,8.6-23.9,66.7-15.9,70.2c2.8,0.1,6.8-3.7,14-10.3
			C153,96.3,172.7,77.1,173.5,95.3z"/>
	</g>
</g>
</svg>
