<?xml version="1.0" encoding="utf-8"?>
<!-- Generator: Adobe Illustrator 25.4.2, SVG Export Plug-In . SVG Version: 6.00 Build 0)  -->
<svg version="1.1" id="Capa_1" xmlns="http://www.w3.org/2000/svg" xmlns:xlink="http://www.w3.org/1999/xlink" x="0px" y="0px"
	 viewBox="0 0 200 200" style="enable-background:new 0 0 200 200;" xml:space="preserve">
<style type="text/css">
	.st0{fill:#F05656;}
	.st1{fill:#FFFFFF;}
	.st2{fill:#5E4B3C;}
	.st3{fill:#37379B;}
</style>
<g>
	<g>
		
			<ellipse transform="matrix(0.7071 -0.7071 0.7071 0.7071 -41.4214 100.0001)" class="st0" cx="100" cy="100" rx="72.4" ry="72.4"/>
		<path class="st1" d="M100,31.8c37.7,0,68.2,30.5,68.2,68.2s-30.5,68.2-68.2,68.2S31.8,137.7,31.8,100S62.3,31.8,100,31.8
			 M100,23.3c-42.3,0-76.7,34.4-76.7,76.7s34.4,76.7,76.7,76.7s76.7-34.4,76.7-76.7S142.3,23.3,100,23.3L100,23.3z"/>
	</g>
	<path class="st1" d="M151.2,90.9c-0.1,0-0.2,0-0.3,0c-4.6,0-12.1,6.9-18.2,12.5c-5.3,4.9-8.4,7.7-10.3,7.7c0,0,0,0-0.1,0l-0.1,0
		l0,0c-0.3-0.1-0.6-0.2-0.8-0.5c-0.9-1.2,0.5-4.2,4.9-13c5.5-11.1,13.9-27.9,11-35.5c-0.6-1.6-1.6-2.7-3.2-3.4
		c-1.6-0.7-3.1-0.7-4.5,0c-6.1,3-9.9,17.3-13.1,28.8c-3,11.1-4.7,16.8-7.5,16.9c-0.5,0-0.9-0.2-1.3-0.5c-1.6-1.7-1.3-7.4-0.6-17.4
		c0.9-12.5,2.1-29.7-3.2-34.9c-1.3-1.2-2.8-1.8-4.8-1.6l-0.1,0c-2.5,0-4.2,3.6-5.2,10.5c-0.9,6.5-0.9,15-1,22.5
		c-0.1,13.5-0.3,20.6-3,21.1c-0.1,0-0.2,0-0.3,0c-2.3,0-3.5-5-5.6-14.9c-2.4-11.3-5.8-26.7-12.3-30.2c-1.7-0.9-3.5-0.9-5.6-0.1
		l-0.1,0c-1.7,0.5-2.3,3.5-1.7,8.9c0.6,5.2,2.1,11.7,3.7,18.7c2.3,9.8,4.6,19.9,4.1,25.9c0,0,0,0,0,0.1c1.9,1.2,3.6,1.9,5.1,1.8
		c7.7-1.3,12.5,2.6,15.2,6c2.1,2.8,3.2,5.7,3.7,7c0.1,0.4-0.1,0.8-0.5,0.9l0,0l0,0l-0.7,0.2c0,0,0,0,0,0l0.7-0.2
		c-0.4,0.1-0.8-0.1-0.9-0.5c-0.4-1.2-1.5-4-3.5-6.6c-3.5-4.5-8.1-6.4-13.7-5.4l0,0c-3.7,0.4-7.8-3.1-12.2-6.7
		c-6.6-5.5-13.4-11.1-19.4-5.5c-2.1,4.6,2.7,8.7,8.9,13.8c5.3,4.5,11.4,9.5,14.2,16.3l0,0c2.7,7.6,6.6,12.1,12.4,14.3
		c2.9,1.1,7,2.2,18.4,1.2l0.1,0c0.7,0,1.4,0,2.1,0c8.6,0,13.8-0.1,17.5-3.1c3.6-3,5.8-9.1,8.2-22.2l0.1-0.3l0.2-0.2
		c12-8.5,25.8-19.3,26.9-27.1c0.2-1.7-0.2-3.1-1.2-4.4C152.9,91.4,152.1,91,151.2,90.9z"/>
	<polygon class="st2" points="95.5,128.6 95.5,128.6 95.5,128.6 	"/>
	<polygon class="st2" points="94.8,128.7 95.6,128.6 95.5,128.6 95.5,128.6 95.5,128.6 94.8,128.7 	"/>
	<path class="st3" d="M154.7,91.2c-0.9-1.1-2-1.7-3.4-1.8c-5.2-0.4-12.9,6.7-19.6,12.9c-3.5,3.2-7.3,6.8-9,7.2
		c0-0.4,0.3-1.3,1.2-3.5c0.9-2.1,2.2-4.7,3.8-7.8c6-12,14.1-28.4,11.1-36.7c-0.7-2-2.1-3.4-4-4.2c-2-0.8-3.9-0.8-5.8,0.1
		c-3,1.5-5.7,5.3-8.3,11.8c-2.2,5.5-4,12.1-5.6,18c-1.2,4.4-2.3,8.5-3.4,11.4c-1.5,3.9-2.4,4.4-2.7,4.4c-0.1,0-0.1,0-0.2-0.1
		c-0.4-0.4-0.8-1.6-0.7-5.3c0-2.9,0.3-6.8,0.6-11c1-13.5,2.2-30.3-3.7-36.1c-1.6-1.5-3.6-2.2-5.9-2c-4.5,0.1-5.9,6.8-6.6,11.8
		c-0.9,6.6-1,15.2-1,22.7c0,5.3-0.1,10.3-0.4,14c-0.4,5.3-1.3,5.6-1.4,5.7c0,0-0.7,0.1-1.8-3.4c-0.8-2.6-1.6-6.1-2.5-10.3
		C82.8,77,79.5,61.8,72.3,58c-2.1-1.1-4.4-1.1-6.8-0.1c-5.4,1.7-2.4,14.5,1,29.3c2.1,9.2,4.4,18.7,4.1,24.6c-1.5-1.1-3-2.3-4.5-3.6
		c-3.4-2.8-6.9-5.7-10.5-7.2c-4.2-1.8-7.8-1.1-11,1.9l-0.1,0.1l-0.1,0.1c-2.7,5.7,2.8,10.4,9.2,15.7c5.2,4.4,11.1,9.3,13.8,15.7
		c2.8,7.9,7.1,12.8,13.3,15.2c2.6,1,5.5,1.5,9.1,1.7c0.7,0,1.4,0,2.1,0c2.7,0,5.5-0.2,7.9-0.4c0.7,0,1.4,0,2.1,0
		c8.7,0,14.4-0.1,18.4-3.5c3.8-3.3,6.2-9.4,8.6-22.8c12.9-9.2,26.1-19.7,27.3-27.9C156.4,94.7,155.9,92.8,154.7,91.2z M154.7,96.5
		c-1.1,7.7-14.9,18.5-26.9,27.1l-0.2,0.2l-0.1,0.3c-2.4,13.2-4.6,19.2-8.2,22.2c-3.6,3.1-8.8,3.1-17.5,3.1c-0.7,0-1.4,0-2.1,0
		l-0.1,0c-11.4,1-15.5-0.1-18.4-1.2c-5.8-2.2-9.7-6.7-12.4-14.3l0,0c-2.9-6.8-8.9-11.9-14.2-16.3c-6.1-5.1-11-9.2-8.9-13.8
		c6-5.6,12.8,0,19.4,5.5c4.4,3.7,8.6,7.1,12.2,6.7l0,0c5.6-0.9,10.3,0.9,13.7,5.4c2,2.6,3,5.4,3.5,6.6c0.1,0.4,0.5,0.6,0.9,0.5h0
		l0,0c0.4-0.1,0.7-0.5,0.5-0.9c-0.4-1.3-1.5-4.3-3.7-7c-2.7-3.5-7.4-7.3-15.2-6c-1.5,0.2-3.2-0.6-5.1-1.8c0,0,0,0,0-0.1
		c0.5-6-1.8-16.1-4.1-25.9c-1.6-6.9-3.1-13.5-3.7-18.7c-0.6-5.3,0-8.3,1.7-8.9l0.1,0c2.1-0.9,3.9-0.8,5.6,0.1
		c6.5,3.4,9.9,18.9,12.3,30.2c2.1,9.9,3.3,14.9,5.6,14.9c0.1,0,0.2,0,0.3,0c2.7-0.5,2.9-7.6,3-21.1c0.1-7.5,0.1-16.1,1-22.5
		c0.9-7,2.7-10.5,5.2-10.5l0.1,0c2-0.2,3.5,0.3,4.8,1.6c5.4,5.3,4.1,22.4,3.2,34.9c-0.7,10-1,15.7,0.6,17.4c0.4,0.4,0.8,0.5,1.3,0.5
		c2.8-0.1,4.5-5.9,7.5-16.9c3.1-11.5,7-25.9,13.1-28.8c1.4-0.7,2.9-0.7,4.5,0c1.6,0.7,2.6,1.8,3.2,3.4c2.8,7.6-5.5,24.4-11,35.5
		c-4.4,8.8-5.7,11.7-4.9,13c0.2,0.3,0.5,0.4,0.8,0.5l0,0l0.1,0c0,0,0,0,0.1,0c1.9,0,5-2.8,10.3-7.7c6-5.6,13.5-12.5,18.2-12.5
		c0.1,0,0.2,0,0.3,0c1,0.1,1.7,0.5,2.4,1.2C154.5,93.4,154.9,94.8,154.7,96.5z"/>
</g>
</svg>
