<?xml version="1.0" encoding="utf-8"?>
<!-- Generator: Adobe Illustrator 25.4.2, SVG Export Plug-In . SVG Version: 6.00 Build 0)  -->
<svg version="1.1" id="Capa_1" xmlns="http://www.w3.org/2000/svg" xmlns:xlink="http://www.w3.org/1999/xlink" x="0px" y="0px"
	 viewBox="0 0 200 200" style="enable-background:new 0 0 200 200;" xml:space="preserve">
<style type="text/css">
	.st0{fill:#FFFFFF;}
	.st1{fill:#F3B22B;}
	.st2{fill:#37379B;}
</style>
<g>
	<g>
		<circle class="st0" cx="100" cy="100" r="79.2"/>
	</g>
	<g>
		<circle class="st1" cx="100" cy="100" r="68.2"/>
	</g>
	<g>
		<path class="st0" d="M125.1,103.5c-1.6,0.3-3,0.3-4.3-0.1c-1.3-0.4-2.3-1.1-3.1-2.1c-1.1,0.7-2.3,1.1-3.6,1.4
			c-0.9,0.8-1.9,1.6-3,2.2c-4,2.1-8.7,2.3-12,2c-0.9-0.1-1.7-0.2-2.5-0.3c1.3,1.2,2.2,2.6,2.8,4.4c0.8,2.3,0.9,4.9,0.2,7.4
			c-0.6,2.5-1.9,4.8-3.7,6.8c-0.3,0.3-0.8,0.3-1.1,0l0,0c-0.3-0.3-0.3-0.7,0-1c1.7-1.8,2.8-3.9,3.4-6.1c0.6-2.2,0.5-4.5-0.2-6.5
			c-1.1-3.2-3.5-5.3-6.7-5.9c-0.4-0.1-0.6-0.4-0.6-0.8c0-0.2,0.2-0.5,0.4-0.6l0,0l0,0c0.1-0.1,0.3-0.1,0.5-0.1
			c0.7,0.1,1.4,0.3,2,0.6c1.8,0.4,10.4,2.3,16.7-1.1c3-1.6,5.1-4.2,6.2-7.8c1.4-4.6,1-7.9-1.2-9.6c-2.3-1.8-6.7-1.5-10.3,0.7
			c-2,1.3-6.5,2.5-11,2.9C91,89.9,85,90,80.9,87.7c-2-1.1-4.3,0.9-6.9,3.3c-2.3,2.1-4.8,4.4-7.8,4.8c-0.5,0.6-1.5,3.7-1.8,8.9
			c-0.2,3.5-0.1,10.3,2.7,16.7c2.3,5.2,5.9,9.1,10.7,11.7c5.8,3.1,13.5,4.2,22.8,3.3l0.1,0l0.1,0c10.1,1.6,18.4,0.3,24-3.9
			c4.1-3.1,6.6-7.5,7.3-12.9l0,0c1.3-8.8,1.4-17.2,1.3-21.5C131,100.9,128.1,102.9,125.1,103.5z"/>
		<path class="st0" d="M103.9,85.8l0.2-13.5c-3.2-6.1-7.4-8.5-10.6-8.2c-3.4,0.4-5.8,3.7-6.6,9.1c-0.8,5.6-0.1,10.7,0.9,14.9
			C93.8,88.7,100.8,87.4,103.9,85.8z"/>
		<path class="st0" d="M116.4,84.9c1.9,1.5,3.8,4.6,1.8,11.3c-0.5,1.6-1.2,3.1-2,4.3c3.9-1.8,6.6-5.8,6.7-10.3l0.3-18.3
			c0.1-4-2.5-7.4-6.1-8.5c-0.8-0.2-1.6-0.4-2.5-0.4c-2.3,0-4.5,0.8-6.2,2.5c-1.7,1.6-2.6,3.8-2.7,6.1l-0.2,13.4
			C109.3,82.9,113.7,82.8,116.4,84.9z"/>
		<path class="st0" d="M73,89.9c2.8-2.5,5.6-5.1,8.6-3.5c1.3,0.7,2.9,1.2,4.7,1.5c-1-4-1.6-9.2-0.8-14.9c-3.1-5-6.9-7.6-10.5-6.8
			c-2,0.4-3.7,1.9-4.9,4.2c-1.4,2.5-2.1,5.9-2,9.8c0,5.4,0.1,9.8,0.4,13.3C70,92.7,71.5,91.3,73,89.9z"/>
		<path class="st0" d="M129.2,70.4C129.2,70.4,129.2,70.4,129.2,70.4c-1.5-0.5-3.1-0.3-4.8,0.4c0,0.3,0,0.6,0,1l-0.3,18.3
			c-0.1,3.5-1.5,6.8-4,9.2c-0.4,0.4-0.8,0.7-1.2,1.1c1.2,1.5,3.3,2.1,5.8,1.6c5.5-1.1,12.8-8.1,10.5-22.7
			C134.4,74.6,132.1,71.3,129.2,70.4z"/>
		<path class="st2" d="M136.8,79.1L136.8,79.1c-1.1-5.4-3.6-9-7.2-10.1c-1.7-0.5-3.5-0.4-5.4,0.3c-1-4.5-5-7.8-9.8-7.9
			c-2.7,0-5.3,1-7.3,2.9c-1.5,1.5-2.5,3.3-2.9,5.4c-1-1.6-2.2-3-3.4-4.1c-2.4-2.2-5.1-3.2-7.6-3c-2,0.2-3.7,1.2-5.1,3
			c-1.1,1.4-1.9,3.2-2.4,5.3c-1.2-1.8-2.6-3.2-4-4.2c-2.4-1.8-4.9-2.4-7.2-1.9c-5,1.1-8.2,7.2-8.1,15.4c0,5.9,0.2,10.5,0.4,14
			c-0.4,0.1-0.7,0.2-1.1,0.3l0,0c-0.6,0.1-1.1,0.7-1.5,2.1c-0.4,1.1-0.7,2.5-1,4.1c-0.4,2.3-0.9,7-0.1,12.5
			c1.1,7.8,5.1,19.1,18.8,23.4c4.9,1.5,10.9,2.1,18.5,1.4c10.5,1.7,19.1,0.2,25-4.2c4.4-3.3,7.1-8.1,7.8-13.9
			c1.6-10.8,1.3-21.2,1.2-23.9C137.6,90.2,137.5,83.6,136.8,79.1z M105.6,71.5c0-2.3,1-4.5,2.7-6.1c1.7-1.6,3.9-2.5,6.2-2.5
			c0.9,0,1.7,0.1,2.5,0.4c3.6,1.1,6.2,4.5,6.1,8.5l-0.3,18.3c-0.1,4.6-2.8,8.5-6.7,10.3c0.9-1.3,1.5-2.7,2-4.3
			c2-6.6,0.1-9.8-1.8-11.3c-2.6-2-7.1-2-11,0.1L105.6,71.5z M86.9,73.2c0.8-5.4,3.2-8.7,6.6-9.1c3.2-0.3,7.4,2.1,10.6,8.2l-0.2,13.5
			c-3,1.6-10.1,2.9-16.1,2.3C86.7,84,86.1,78.8,86.9,73.2z M68,80.2c0-3.9,0.7-7.3,2-9.8c1.2-2.3,2.9-3.7,4.9-4.2
			c3.6-0.8,7.4,1.8,10.5,6.8c-0.8,5.7-0.2,10.9,0.8,14.9c-1.7-0.3-3.3-0.8-4.7-1.5c-3-1.6-5.8,1-8.6,3.5c-1.5,1.3-3,2.7-4.6,3.6
			C68.1,90,68,85.6,68,80.2z M131.9,119.6L131.9,119.6c-0.7,5.4-3.2,9.8-7.3,12.9c-5.6,4.2-13.9,5.6-24,3.9l-0.1,0l-0.1,0
			c-9.3,0.9-16.9-0.2-22.8-3.3c-4.8-2.6-8.4-6.5-10.7-11.7c-2.8-6.4-2.9-13.2-2.7-16.7c0.3-5.2,1.4-8.3,1.8-8.9
			c2.9-0.5,5.5-2.8,7.8-4.8c2.6-2.4,4.9-4.4,6.9-3.3C85,90,91,89.9,94.2,89.6c4.5-0.4,9-1.5,11-2.9c3.6-2.2,7.9-2.5,10.3-0.7
			c2.2,1.7,2.6,5,1.2,9.6c-1.1,3.6-3.2,6.2-6.2,7.8c-6.3,3.4-15,1.5-16.7,1.1c-0.6-0.3-1.3-0.5-2-0.6c-0.2,0-0.3,0-0.5,0.1l0,0l0,0
			c-0.2,0.1-0.4,0.3-0.4,0.6c0,0.4,0.2,0.7,0.6,0.8c3.2,0.6,5.6,2.7,6.7,5.9c0.7,2,0.8,4.3,0.2,6.5c-0.6,2.2-1.7,4.3-3.4,6.1
			c-0.3,0.3-0.3,0.7,0,1l0,0c0.3,0.3,0.8,0.3,1.1,0c1.8-2,3.1-4.3,3.7-6.8c0.6-2.5,0.6-5.1-0.2-7.4c-0.6-1.7-1.6-3.2-2.8-4.4
			c0.7,0.1,1.6,0.2,2.5,0.3c3.3,0.3,8,0.1,12-2c1.1-0.6,2.1-1.3,3-2.2c1.3-0.3,2.4-0.8,3.6-1.4c0.7,1,1.8,1.7,3.1,2.1
			c1.2,0.4,2.7,0.4,4.3,0.1c3.1-0.6,5.9-2.6,8.1-5.4C133.3,102.3,133.2,110.8,131.9,119.6z M124.8,102c-2.5,0.5-4.6-0.1-5.8-1.6
			c0.4-0.3,0.8-0.7,1.2-1.1c2.5-2.4,3.9-5.7,4-9.2l0.3-18.3c0-0.3,0-0.6,0-1c1.6-0.7,3.2-0.9,4.7-0.4c0,0,0,0,0,0
			c2.9,0.9,5.1,4.1,6.1,8.9C137.5,93.9,130.2,100.9,124.8,102z"/>
	</g>
</g>
</svg>
