<?xml version="1.0" encoding="utf-8"?>
<!-- Generator: Adobe Illustrator 25.4.2, SVG Export Plug-In . SVG Version: 6.00 Build 0)  -->
<svg version="1.1" id="Capa_1" xmlns="http://www.w3.org/2000/svg" xmlns:xlink="http://www.w3.org/1999/xlink" x="0px" y="0px"
	 viewBox="0 0 200 200" style="enable-background:new 0 0 200 200;" xml:space="preserve">
<style type="text/css">
	.st0{fill:#F3B22B;}
	.st1{fill:#FFFFFF;}
	.st2{fill:#37379B;}
</style>
<g>
	<path class="st0" d="M164.7,67.6c0-0.1,0-0.2,0-0.3c0,0,0-0.2-0.1-0.3c-3.3-16.1-12.6-21.2-17.9-22.8c-1.5-0.5-3.1-0.8-4.8-0.9
		c-4.6-6.5-12.2-10.6-20.5-10.7c-0.1,0-0.3,0-0.4,0c-6.1,0-11.8,2.1-16.4,5.9c-4.2-2.7-8.8-4.2-13.4-4.2c-0.7,0-1.5,0-2.2,0.1
		c-4.7,0.5-9.1,2.6-12.6,5.9c-3.7-2-7.6-3.1-11.5-3.1c-1.6,0-3.2,0.2-4.7,0.5C47.8,40.6,39.9,53.5,40,70.9c0,5.3,0.1,10.3,0.3,14.9
		c-1.2,1.5-2.2,3.3-3,5.5c-0.8,2.2-1.4,4.9-1.9,7.9c-0.6,4-1.5,12.1-0.1,21.6c1.3,8.9,4.2,16.8,8.6,23.5
		c6.2,9.5,15.2,16.1,26.5,19.6c6.4,2,13.5,3,21.3,3c2.8,0,5.8-0.1,8.8-0.4c4.2,0.6,8.2,0.9,12,0.9c0,0,0,0,0,0
		c12.6,0,23.2-3.2,31.5-9.4c8.8-6.6,14.2-16.2,15.7-27.5c2.1-14.2,2.1-27.8,2-34.3C166.2,86,165.8,75.2,164.7,67.6z"/>
	<g>
		<path class="st1" d="M136.9,105.1c-2.3,0.5-4.4,0.4-6.3-0.2c-1.8-0.6-3.4-1.6-4.5-3.1c-1.6,1-3.4,1.7-5.2,2.1
			c-1.3,1.2-2.8,2.3-4.4,3.2c-5.8,3.1-12.8,3.3-17.6,2.9c-1.3-0.1-2.5-0.3-3.6-0.4c1.8,1.7,3.3,3.9,4.1,6.4
			c1.2,3.4,1.3,7.2,0.3,10.9c-0.9,3.6-2.8,7-5.5,10c-0.4,0.5-1.1,0.5-1.6,0l0,0c-0.4-0.4-0.4-1.1,0-1.5c2.5-2.6,4.2-5.7,5-9
			c0.8-3.3,0.7-6.6-0.3-9.6c-1.6-4.7-5.2-7.8-9.9-8.7c-0.6-0.1-0.9-0.6-0.9-1.2c0-0.4,0.3-0.7,0.6-0.8l0,0l0,0
			c0.2-0.1,0.5-0.2,0.7-0.1c1,0.2,2.1,0.5,3,0.9c2.6,0.6,15.3,3.3,24.6-1.6c4.4-2.4,7.5-6.2,9.1-11.5c2-6.8,1.4-11.7-1.8-14.2
			c-3.4-2.7-9.8-2.2-15.1,1c-3,2-9.5,3.7-16.2,4.2C86.8,85.1,78,85.3,71.8,82c-3-1.6-6.3,1.4-10.2,4.9c-3.3,3-7.1,6.4-11.4,7.1
			c-0.7,0.8-2.3,5.5-2.7,13.1c-0.3,5.1-0.1,15.1,4,24.5c3.3,7.7,8.6,13.5,15.7,17.2c8.6,4.6,19.9,6.2,33.5,4.9l0.1,0l0.1,0
			c14.9,2.4,27.1,0.4,35.3-5.8c6-4.5,9.7-11.1,10.7-19l0,0c1.9-12.9,2-25.4,1.9-31.6C145.6,101.4,141.4,104.2,136.9,105.1z"/>
		<path class="st1" d="M105.7,79.1l0.3-19.8c-4.7-8.9-10.9-12.6-15.6-12.1c-5,0.5-8.6,5.4-9.7,13.4c-1.2,8.2-0.2,15.8,1.4,21.9
			C90.9,83.4,101.2,81.5,105.7,79.1z"/>
		<path class="st1" d="M124.1,77.7c2.8,2.2,5.5,6.8,2.6,16.6c-0.7,2.4-1.7,4.5-3,6.4c5.7-2.7,9.7-8.5,9.8-15.2l0.4-27
			c0.1-5.8-3.7-10.8-9-12.5c-1.1-0.4-2.4-0.6-3.6-0.6c-3.4-0.1-6.7,1.2-9.2,3.6c-2.5,2.4-3.9,5.6-3.9,9l-0.3,19.8
			C113.7,74.8,120.2,74.7,124.1,77.7z"/>
		<path class="st1" d="M60.2,85.2c4.1-3.7,8.3-7.5,12.7-5.2c1.9,1,4.3,1.7,6.9,2.2c-1.4-5.9-2.4-13.6-1.2-21.9
			c-4.5-7.4-10.2-11.2-15.4-10c-2.9,0.7-5.4,2.8-7.2,6.1c-2,3.7-3,8.7-3,14.4c0,7.9,0.2,14.5,0.6,19.6C55.8,89.2,58,87.2,60.2,85.2z
			"/>
		<path class="st1" d="M143,56.5C143,56.5,143,56.5,143,56.5c-2.2-0.7-4.6-0.4-7,0.6c0,0.5,0.1,0.9,0,1.4l-0.4,27
			c-0.1,5.2-2.2,10-5.9,13.6c-0.6,0.6-1.2,1.1-1.8,1.6c1.7,2.2,4.8,3.2,8.5,2.4c8-1.6,18.8-11.9,15.5-33.5
			C150.6,62.6,147.3,57.8,143,56.5z"/>
		<path class="st2" d="M154.1,69.2L154.1,69.2c-1.6-8-5.4-13.2-10.5-14.8c-2.5-0.8-5.2-0.6-7.9,0.5c-1.5-6.6-7.4-11.5-14.4-11.6
			c-4-0.1-7.8,1.4-10.7,4.2c-2.2,2.2-3.7,4.9-4.3,7.9c-1.5-2.4-3.2-4.4-5-6c-3.5-3.2-7.5-4.8-11.1-4.4c-2.9,0.3-5.5,1.8-7.5,4.4
			c-1.6,2-2.8,4.7-3.6,7.8c-1.8-2.6-3.8-4.7-5.8-6.2c-3.5-2.6-7.2-3.6-10.7-2.8c-7.4,1.7-12,10.6-11.9,22.7
			c-0.1,8.7,0.2,15.5,0.6,20.6c-0.5,0.2-1.1,0.3-1.6,0.4l-0.1,0c-0.9,0.2-1.6,1.1-2.2,3c-0.6,1.6-1.1,3.7-1.4,6
			c-0.5,3.4-1.3,10.3-0.1,18.5c1.6,11.4,7.6,28.2,27.7,34.5c7.1,2.2,16.1,3.1,27.2,2c15.4,2.4,28.1,0.3,36.8-6.2
			c6.5-4.9,10.5-12,11.5-20.5c2.4-15.9,2-31.2,1.8-35.2C155.4,85.6,155.2,75.9,154.1,69.2z M108.2,58.1c0.1-3.4,1.4-6.7,3.9-9
			c2.5-2.4,5.7-3.7,9.2-3.6c1.3,0,2.5,0.2,3.6,0.6c5.3,1.7,9.1,6.7,9,12.5l-0.4,27c-0.1,6.7-4.1,12.5-9.8,15.2c1.3-1.9,2.3-4,3-6.4
			c2.9-9.8,0.2-14.4-2.6-16.6c-3.9-3-10.4-2.9-16.2,0.1L108.2,58.1z M80.7,60.6c1.1-8,4.7-12.9,9.7-13.4c4.7-0.5,10.9,3.2,15.6,12.1
			l-0.3,19.8c-4.5,2.4-14.8,4.3-23.6,3.4C80.5,76.4,79.5,68.8,80.7,60.6z M52.9,70.8c-0.1-5.7,1-10.7,3-14.4
			c1.8-3.4,4.3-5.5,7.2-6.1c5.2-1.2,10.9,2.6,15.4,10c-1.2,8.3-0.2,16,1.2,21.9c-2.6-0.4-4.9-1.1-6.9-2.2c-4.4-2.3-8.6,1.5-12.7,5.2
			c-2.2,2-4.4,4-6.8,5.3C53.1,85.3,52.8,78.8,52.9,70.8z M147,128.8L147,128.8c-1,7.9-4.7,14.5-10.7,19c-8.2,6.2-20.4,8.2-35.3,5.8
			l-0.1,0l-0.1,0c-13.6,1.4-24.9-0.3-33.5-4.9c-7.1-3.8-12.4-9.6-15.7-17.2c-4.1-9.4-4.2-19.4-4-24.5c0.4-7.6,2-12.2,2.7-13.1
			c4.3-0.7,8.1-4.1,11.4-7.1c3.8-3.5,7.2-6.5,10.2-4.9c6.2,3.3,14.9,3.2,19.6,2.8c6.7-0.6,13.2-2.3,16.2-4.2
			c5.3-3.2,11.7-3.7,15.1-1c3.2,2.5,3.9,7.4,1.8,14.2c-1.6,5.3-4.6,9.1-9.1,11.5c-9.3,5-22,2.3-24.6,1.6c-1-0.4-2-0.7-3-0.9
			c-0.3,0-0.5,0-0.7,0.1l0,0l0,0c-0.3,0.2-0.5,0.5-0.6,0.8c-0.1,0.6,0.3,1.1,0.9,1.2c4.7,0.9,8.3,4,9.9,8.7c1,3,1.1,6.3,0.3,9.6
			c-0.8,3.3-2.5,6.3-5,9c-0.4,0.4-0.4,1.1,0,1.5l0,0c0.4,0.4,1.2,0.4,1.6,0c2.7-2.9,4.6-6.3,5.5-10c0.9-3.7,0.8-7.5-0.3-10.9
			c-0.9-2.6-2.3-4.7-4.1-6.4c1.1,0.2,2.3,0.3,3.6,0.4c4.8,0.4,11.8,0.2,17.6-2.9c1.6-0.9,3.1-1.9,4.4-3.2c1.8-0.4,3.6-1.2,5.2-2.1
			c1.1,1.5,2.6,2.6,4.5,3.1c1.8,0.6,4,0.7,6.3,0.2c4.5-0.9,8.7-3.8,11.9-8C149,103.4,148.9,115.9,147,128.8z M136.5,103
			c-3.7,0.8-6.8-0.2-8.5-2.4c0.6-0.5,1.3-1,1.8-1.6c3.7-3.6,5.8-8.4,5.9-13.6l0.4-27c0-0.5,0-1,0-1.4c2.4-1.1,4.8-1.3,6.9-0.6
			c0,0,0,0,0.1,0c4.3,1.3,7.5,6.1,8.9,13C155.3,91.1,144.5,101.4,136.5,103z"/>
	</g>
</g>
</svg>
