<?xml version="1.0" encoding="utf-8"?>
<!-- Generator: Adobe Illustrator 25.4.2, SVG Export Plug-In . SVG Version: 6.00 Build 0)  -->
<svg version="1.1" id="Capa_1" xmlns="http://www.w3.org/2000/svg" xmlns:xlink="http://www.w3.org/1999/xlink" x="0px" y="0px"
	 viewBox="0 0 200 200" style="enable-background:new 0 0 200 200;" xml:space="preserve">
<style type="text/css">
	.st0{fill:#A7CE85;}
	.st1{fill:#FFFFFF;}
	.st2{fill:#37379B;}
</style>
<g>
	<g>
		<path class="st0" d="M154.5,101.1c-1.8-5.5-5.7-10.2-10.8-12.7c-2.2-9.3-9.6-16.4-18.9-15.3c1.2-18.6,5.6-43.8-13.8-51.9
			c-22-5.5-23.1,26.5-25,43.3c-5.6-16.7-11.9-32.9-26.5-33.2c-6.2,0.4-10.8,1.7-13.9,9.6c-4.3,15.5,5.3,39.3,5.5,54.9
			c0,14.3,0.6,20-1.4,27.2c-0.6,4.3-1.2,9.6-0.3,13.9c3.2,31,20.4,45.6,52.6,41.2c4,1,8.8,1.4,13.2,1c31.7-2.7,38.1-31.7,35.1-57.5
			C154,115.4,157.3,109,154.5,101.1z"/>
	</g>
	<g>
		<path class="st1" d="M59.9,116.8c3.9-5.9,12.7-10.7,18.8-8.4c7.7,3.9,21.6,1.8,27.4-1c1.1-5.6,3.3-12.6,7.7-18.6
			c1.8-14.4,3.4-27.8,3.1-38.3c-0.3-12.9-4.3-23.2-13-20.2c-6.8,4.2-8.4,29.1-9.8,44c-1.4,10.3-2.1,18.2-3.2,26
			c-0.5,5.1-3.2,4.7-4.4,0.2C79,71.5,72.6,46.5,63,41.4c-14.9-5.2-8.9,15.2-6.2,32C60.5,87.7,60.7,106.2,59.9,116.8z"/>
		<path class="st1" d="M108.6,106.1c9.3-5.5,17.2,2.4,15.9,11.6C151,90.2,121.9,59.9,108.6,106.1z"/>
		<path class="st1" d="M138.1,127c-6.1,7.5-14.5,8.2-21.7,2.8c-4.8,3.5-12.1,4.8-19,4c6.1,6,4.8,14.7-0.8,22.3
			c-0.3,0.5-1,0.5-1.5,0.2c-0.4-0.3-0.5-1-0.2-1.4c6.9-8.7,6-20.4-5.2-22.7c-1.7-0.7-0.8-2.9,2-1.6c2.4,0.6,5.3,1.2,8,1.3
			c13.8,1.8,29.2-11.3,20-23.6c-2.7-2.8-6.8-2.7-11.5,0.3c-5.3,3.3-21.5,6.2-30.5,1.6c-5.5-2.4-17.1,5.3-18.6,12.4
			c-1.4,4.2-1.5,9.5-0.9,12.9c3.1,26.6,14.4,37.6,44.7,33.5c31.8,7.1,41.8-19.1,38.3-46.2C140.3,124.4,139.2,125.8,138.1,127z"/>
		<path class="st1" d="M141.7,97.8c-1-0.8-2.4-1.6-4.3-1.9c-1.3,10.2-7.4,20.2-13.8,25.1c-1.1,2.9-3.3,5.5-5.6,7.5
			c3.8,2.5,7.1,3.4,10.2,2.7c5.9-1.3,11.7-8.1,17.6-20.8C147.5,106.6,145.6,100.9,141.7,97.8z"/>
		<path class="st2" d="M143,96.2c-1.7-1.4-3.6-2.1-5.5-2.4c-0.8-13.4-12.2-18.6-21.2-8c3.6-29.1,5.7-53.4-7.6-57.9
			C94.6,25.5,95,50.7,92.6,69.3c-1.1,11-2.6,22.8-3.8,31.5C82.7,83.4,76.3,33.3,55.9,39c-11.5,4,2.9,43.8,2.2,56.7
			c0,15.7,0.5,21.3-1.7,29.3l0,0c-0.7,3.3-0.7,6.9-0.1,10.8c3,27,15.4,39.6,46.5,35.3c8.1,2.4,18.9,1.2,26.2-3.3
			c15.3-7.6,16.4-34.3,14-47.5C148,112.3,152.2,104.3,143,96.2z M129.7,82.9c12.4,7,1.1,29.7-5.2,34.8c1.3-9.3-6.6-17.2-15.9-11.6
			C109.7,97.7,120.2,78,129.7,82.9z M56.9,73.3c-2.8-16.8-8.8-37.2,6.2-32c9.6,5.1,16,30.3,23.5,59.3c1.3,4.5,3.9,4.8,4.4-0.3
			c1.1-7.8,1.8-15.7,3.2-26c1.4-15,3-39.8,9.8-44c8.7-3,12.6,7.3,13,20.2c0.3,10.5-1.3,23.9-3.1,38.3c-4.4,6-6.6,13-7.7,18.6
			c-5.8,2.7-19.7,4.9-27.4,1c-6.1-2.2-14.9,2.6-18.8,8.4C60.7,106.1,60.5,87.7,56.9,73.3z M140.7,146.1c-2,19.1-23.3,28-38.2,22.9
			c-30.3,4.2-41.1-7.2-44.2-33.5c-0.4-2.6-0.6-6.3,0.2-10.1c1.1-8.7,12-17.5,19.4-15.2c9,4.5,25.1,1.6,30.5-1.6
			c21.5-12.1,20.5,31.8-16.6,22c-0.9-0.3-2.5-0.9-2.8,0.5c-0.1,0.5,0.3,1,0.8,1.1c11.2,2.3,12.1,14,5.2,22.7c-0.8,1,0.8,2.3,1.6,1.2
			c5.6-7.6,6.9-16.3,0.8-22.3c7,0.8,14.2-0.5,19-4c9.6,7.2,18.7,2.8,24.9-6.9C142.2,129.1,142,136.8,140.7,146.1z M146,110.4
			c-8.6,16.6-14.5,26-27.8,18.1c2.3-2,4.4-4.5,5.6-7.5c6.3-4.9,12.5-14.9,13.8-25.1C144,97,147.9,105.2,146,110.4z"/>
	</g>
</g>
</svg>
